<?xml version="1.0" encoding="utf-8"?>
<!-- Generator: Adobe Illustrator 25.0.0, SVG Export Plug-In . SVG Version: 6.00 Build 0)  -->
<svg version="1.1" id="Layer_1" xmlns="http://www.w3.org/2000/svg" xmlns:xlink="http://www.w3.org/1999/xlink" x="0px" y="0px"
	 viewBox="0 0 810 802" style="enable-background:new 0 0 810 802;" xml:space="preserve">
<style type="text/css">
	.st0{fill:#D4D4D4;}
	.st1{fill:#E8E8E8;}
	.st2{fill:#EAEAEA;}
	.st3{fill:#080808;}
	.st4{fill:#FFFFFF;}
	.st5{fill:#2B2B2B;}
	.st6{fill:#B4B2B2;}
	.st7{fill:#575555;}
	.st8{fill:#545555;}
	.st9{fill:#CACBCB;}
	.st10{fill:#868585;}
	.st11{fill:#7E8282;}
	.st12{fill:#ABACAC;}
	.st13{fill:#DDDBDB;}
	.st14{fill:#010101;}
</style>
<path class="st0" d="M423.9,52c2.4,0,4.8,0,7.2,0c0.1,0.3,0.1,0.5-0.2,0.7c-2.3,0.7-4.5,0.7-6.8,0C423.8,52.6,423.8,52.3,423.9,52z"
	/>
<path class="st1" d="M423.9,52c0,0.1,0,0.3,0,0.4c-1.3,1-2.6,1-3.8,0c0-0.1,0-0.3,0-0.4C421.4,52,422.6,52,423.9,52z"/>
<path class="st2" d="M431.1,52.4c0-0.1,0-0.3,0-0.4c1.3,0,2.6,0,3.8,0c0,0.1,0,0.3,0,0.4C433.7,53.4,432.4,53.4,431.1,52.4z"/>
<g>
	
		<image style="overflow:visible;opacity:0.45;" width="3234" height="3234" xlink:href="927233EAADED7912.png"  transform="matrix(0.24 0 0 0.24 16.88 12.96)">
	</image>
	<g>
		<g>
			<path class="st3" d="M646.3,783H163.7C86,783,23,720,23,642.3V159.7C23,82,86,19,163.7,19h482.6C724,19,787,82,787,159.7v482.6
				C787,720,724,783,646.3,783z"/>
			<g>
				<path class="st4" d="M138.3,497.4c1.3-5,2.6-10,4-15c4.9-18.2,9.8-36.4,14.7-54.5c0.1-0.5,0.3-0.9,0.4-1.4
					c0.1-0.6,0.5-1,1.2-0.9c0.6,0,1.1,0,1.7,0c10.4,0,20.8,0,31.2,0c2,0,2,0,2.5-1.9c9-33.5,18-67,27-100.6
					c5.2-19.3,10.4-38.7,15.6-58c0.2-0.8,0.4-1.5,0.7-2.5c-16.9,0-33.7,0-50.7,0c1.5-5.6,2.9-11,4.4-16.4
					c4.8-17.7,9.5-35.4,14.3-53.2c0.6-2.2,0.6-2.2,2.8-2.2c95.9,0,191.8,0,287.8,0c13.6,0,26.8,2.4,38.9,8.9
					c20.1,10.8,32.2,27.4,35.9,50c2,12,0.8,23.8-2.3,35.4c-6.1,23.3-12.4,46.6-18.6,69.8c-3.9,14.6-8,29.3-11.8,43.9
					c-6.6,25.5-19.9,46.9-39.6,64.3c-15.5,13.6-32.8,24-52.7,29.8c-12.6,3.7-25.5,5.1-38.6,4.8c-0.3,0-0.6-0.1-1.1-0.2
					c0.9-3.3,1.7-6.5,2.6-9.8c5.3-19.7,10.6-39.5,15.9-59.2c0.1-0.4,0.3-0.8,0.3-1.1c0.1-1.2,0.8-1.4,1.8-1.4c4,0,8,0.1,12-0.4
					c12.3-1.7,20.9-8.1,25.6-19.7c1.9-4.6,2.9-9.5,4.2-14.2c9.3-34.5,18.5-69,27.8-103.6c1-3.8,1.6-7.6,1.3-11.6
					c-0.5-5.5-3.2-9.4-8.2-11.8c-3.1-1.4-6.4-2.1-9.7-2.3c-1.9-0.1-3.8-0.1-5.8-0.1c-53.7,0-107.4,0-161,0c-3.4,0-3.4,0-4.2,3.2
					c-14.3,53.2-28.6,106.5-42.8,159.7c0,0.1,0,0.3,0,0.7c9.8,0,19.7,0,29.4,0c0.6,0.7,0.3,1.3,0.2,1.8
					c-6.1,22.7-12.2,45.5-18.2,68.2c-0.3,1.3-0.8,2-2.3,1.8c-0.4-0.1-0.8,0-1.2,0c-43.9,0-87.8,0-131.8,0
					C140.3,497.7,139.3,497.9,138.3,497.4z"/>
				<path class="st4" d="M295.7,375.9c1.7-6.3,3.3-12.2,4.9-18.1c4.6-17.1,9.2-34.2,13.8-51.3c0.6-2.1,0.6-2.1,2.9-2.1
					c47.6,0,95.2,0,142.8,0c0.7,0,1.4-0.1,2.1,0.2c0.3,0.8-0.2,1.4-0.3,2.1c-6,22.4-12,44.9-18,67.3c0,0.2-0.1,0.3-0.1,0.5
					c-0.1,1.3-0.7,1.8-2,1.7c-0.8-0.1-1.6,0-2.4,0c-9.3,0-18.6,0-27.8,0c-2.1,0-2.2,0-2.7,2.1c-10.4,38.9-20.9,77.8-31.3,116.8
					c-3.9,14.6-7.8,29.1-11.7,43.7c-0.1,0.3-0.2,0.6-0.2,0.9c0.7,0.5,1.4,0.3,2.1,0.3c55,0,110.1,0,165.1,0c4.8,0,9.6-0.8,14.1-2.5
					c9-3.4,14.6-10,17.8-18.9c2-5.6,3.3-11.3,4.8-17c8.9-33.1,17.7-66.1,26.6-99.2c1.1-4.2,1.9-8.4,1.3-12.8
					c-0.7-5-3.3-8.6-7.8-10.8c-3.1-1.5-6.5-2.2-9.9-2.4c-2.1-0.1-4.3,0-6.6,0c0.1-2.3,0.8-4.1,1.3-5.9c5.7-21.3,11.4-42.5,17.1-63.8
					c0.6-2.1,0.6-2.1,2.7-2.1c13.2,0.1,26,1.8,38,7.6c21.5,10.4,34.5,27.3,38.6,50.9c1.9,10.7,1,21.4-1.3,31.9
					c-2.7,12-6.2,23.8-9.3,35.7c-7.4,27.8-15,55.6-22.4,83.5c-6.9,26-21,47.4-41.4,64.8c-13.8,11.7-29,20.9-46.2,26.6
					c-12.1,4.1-24.6,6.2-37.4,6.2c-92.1,0-184.2,0-276.2,0c-0.8,0-1.6,0-2.3,0c-0.4-0.8-0.1-1.3,0.1-1.9c6-22.5,12-45,18-67.5
					c0.6-2.2,0.6-2.2,2.8-2.2c12.2-0.1,24.5-0.1,36.7-0.2c2.1,0,2.1,0,2.6-1.9c9.8-36.5,19.5-72.9,29.3-109.4
					c4.6-17,9.1-34.1,13.7-51.1c0.1-0.2,0.1-0.5,0.2-0.9c-2.3-0.4-4.6-0.1-6.9-0.2c-2.3,0-4.6,0-7,0c-2.3,0-4.6,0-7,0
					c-2.2,0-4.5,0-6.7,0c-2.3,0-4.6-0.1-7-0.1C300.7,375.8,298.4,375.9,295.7,375.9z"/>
			</g>
		</g>
	</g>
</g>
<path class="st5" d="M-725.4,396.9c0,3.8,0,7.7,0,11.5c-0.3,0.1-0.6,0.1-0.8-0.2c-0.7-3.7-0.7-7.4,0-11.1
	C-726,396.8-725.8,396.7-725.4,396.9z"/>
<path class="st0" d="M-1082.1,52c2.4,0,4.8,0,7.2,0c0.1,0.3,0.1,0.5-0.2,0.7c-2.3,0.7-4.5,0.7-6.8,0
	C-1082.2,52.6-1082.2,52.3-1082.1,52z"/>
<path class="st1" d="M-1082.1,52c0,0.1,0,0.3,0,0.4c-1.3,1-2.6,1-3.8,0c0-0.1,0-0.3,0-0.4C-1084.6,52-1083.4,52-1082.1,52z"/>
<path class="st2" d="M-1074.9,52.4c0-0.1,0-0.3,0-0.4c1.3,0,2.6,0,3.8,0c0,0.1,0,0.3,0,0.4C-1072.3,53.4-1073.6,53.4-1074.9,52.4z"
	/>
<path class="st6" d="M-725.4,388.3c0,1.1,0,2.2,0,3.4c-0.3,0.2-0.5,0.1-0.7-0.1c-0.5-1-0.5-2.1,0-3.1
	C-725.9,388.1-725.7,388.1-725.4,388.3z"/>
<path class="st7" d="M-725.4,396.9l-0.2,0l-0.2,0c-0.8-0.8-0.7-1.7-0.3-2.7c0.2-0.3,0.4-0.3,0.7-0.2
	C-725.4,395-725.4,395.9-725.4,396.9z"/>
<path class="st8" d="M-725.9,408.4c0.1,0,0.3,0,0.4,0c0,1,0,1.9,0,2.9c-0.3,0.2-0.5,0.1-0.7-0.2
	C-726.6,410.2-726.7,409.3-725.9,408.4z"/>
<path class="st9" d="M-725.4,418.5l-0.2,0.1l-0.2,0c-0.9-0.8-0.8-1.8-0.3-2.7c0.2-0.3,0.4-0.3,0.7-0.2
	C-725.4,416.6-725.4,417.5-725.4,418.5z"/>
<path class="st10" d="M-725.4,394c-0.1,0-0.3,0-0.4,0c-0.8-0.8-0.8-1.6,0-2.4c0.1,0,0.3,0,0.4,0C-725.4,392.4-725.4,393.2-725.4,394
	z"/>
<path class="st11" d="M-725.8,411.3c0.1,0,0.3,0,0.4,0c0,0.8,0,1.6,0,2.4c-0.3,0.2-0.5,0.1-0.7-0.1
	C-726.5,412.7-726.6,412-725.8,411.3z"/>
<path class="st12" d="M-725.9,413.7c0.1,0,0.3,0,0.4,0c0,0.6,0,1.3,0,1.9l-0.2,0l-0.2,0C-726.5,415-726.5,414.3-725.9,413.7z"/>
<path class="st13" d="M-725.4,388.3l-0.2,0l-0.2,0c-0.5-0.5-0.5-1,0-1.4c0.1,0,0.3,0,0.4,0C-725.4,387.3-725.4,387.8-725.4,388.3z"
	/>
<path d="M-725.8,386.8c0,0.5,0,1,0,1.4c0,1.1,0,2.2,0,3.4c0,0.8,0,1.6,0,2.4c0,1,0,1.9,0,2.9c0,3.9,0,7.7,0,11.6c0,1,0,1.9,0,2.9
	c0,0.8,0,1.6,0,2.4c0,0.6,0,1.3,0,1.9c-0.1,1-0.2,1.9,0,2.9c-0.2,11.5-1.4,23-3.1,34.4c-3.9,27-10.6,53.2-20.8,78.5
	c-33.2,82-89,143.6-167.5,184.5c-28.9,15.1-59.5,25.5-91.5,31.8c-14.2,2.8-28.5,4.7-43,5.8c-15.9,1.2-31.8,1.3-47.7,0.3
	c-73-4.9-138.6-29.7-196-75.1c-54-42.7-92.2-96.7-114.8-161.7c-6.4-18.5-11.1-37.5-14.3-56.8c-3.7-22.3-5.2-44.8-4.5-67.3
	c1.5-50.2,12.8-98.1,35-143.1c38.5-78,97.9-134.4,177.7-169.2c24.6-10.7,50.3-18.1,76.7-22.7c17.5-3,35.2-4.7,52.9-5.2
	c0.2,0,0.5-0.1,0.7-0.1c1.3,0.1,2.6,0.1,3.8,0c2.4,0.1,4.8,0.1,7.2,0c1.3,0.1,2.6,0.1,3.8,0c6.2,0.3,12.5,0.5,18.7,1
	c10.2,0.7,20.4,1.9,30.5,3.5c18,2.9,35.7,7.2,53,12.8c51.9,17.1,97.6,44.6,136.7,82.7c44.9,43.8,76.1,95.8,93.5,156
	c4.4,15.4,7.7,31,10,46.8C-727.3,365.8-726.1,376.2-725.8,386.8z"/>
<g>
	<path class="st4" d="M-1337,488.9c1.3-5,2.6-10,4-15c4.9-18.2,9.8-36.4,14.7-54.5c0.1-0.5,0.3-0.9,0.4-1.4c0.1-0.6,0.5-1,1.2-0.9
		c0.6,0,1.1,0,1.7,0c10.4,0,20.8,0,31.2,0c2,0,2,0,2.5-1.9c9-33.5,18-67,27-100.6c5.2-19.3,10.4-38.7,15.6-58
		c0.2-0.8,0.4-1.5,0.7-2.5c-16.9,0-33.7,0-50.7,0c1.5-5.6,2.9-11,4.4-16.4c4.8-17.7,9.5-35.4,14.3-53.2c0.6-2.2,0.6-2.2,2.8-2.2
		c95.9,0,191.8,0,287.8,0c13.6,0,26.8,2.4,38.9,8.9c20.1,10.8,32.2,27.4,35.9,50c2,12,0.8,23.8-2.3,35.4
		c-6.1,23.3-12.4,46.6-18.6,69.8c-3.9,14.6-8,29.3-11.8,43.9c-6.6,25.5-19.9,46.9-39.6,64.3c-15.5,13.6-32.8,24-52.7,29.8
		c-12.6,3.7-25.5,5.1-38.6,4.8c-0.3,0-0.6-0.1-1.1-0.2c0.9-3.3,1.7-6.5,2.6-9.8c5.3-19.7,10.6-39.5,15.9-59.2
		c0.1-0.4,0.3-0.8,0.3-1.1c0.1-1.2,0.8-1.4,1.8-1.4c4,0,8,0.1,12-0.4c12.3-1.7,20.9-8.1,25.6-19.7c1.9-4.6,2.9-9.5,4.2-14.2
		c9.3-34.5,18.5-69,27.8-103.6c1-3.8,1.6-7.6,1.3-11.6c-0.5-5.5-3.2-9.4-8.2-11.8c-3.1-1.4-6.4-2.1-9.7-2.3
		c-1.9-0.1-3.8-0.1-5.8-0.1c-53.7,0-107.4,0-161,0c-3.4,0-3.4,0-4.2,3.2c-14.3,53.2-28.6,106.5-42.8,159.7c0,0.1,0,0.3,0,0.7
		c9.8,0,19.7,0,29.4,0c0.6,0.7,0.3,1.3,0.2,1.8c-6.1,22.7-12.2,45.5-18.2,68.2c-0.3,1.3-0.8,2-2.3,1.8c-0.4-0.1-0.8,0-1.2,0
		c-43.9,0-87.8,0-131.8,0C-1335,489.2-1335.9,489.4-1337,488.9z"/>
	<path class="st4" d="M-1179.6,367.3c1.7-6.3,3.3-12.2,4.9-18.1c4.6-17.1,9.2-34.2,13.8-51.3c0.6-2.1,0.6-2.1,2.9-2.1
		c47.6,0,95.2,0,142.8,0c0.7,0,1.4-0.1,2.1,0.2c0.3,0.8-0.2,1.4-0.3,2.1c-6,22.4-12,44.9-18,67.3c0,0.2-0.1,0.3-0.1,0.5
		c-0.1,1.3-0.7,1.8-2,1.7c-0.8-0.1-1.6,0-2.4,0c-9.3,0-18.6,0-27.8,0c-2.1,0-2.2,0-2.7,2.1c-10.4,38.9-20.9,77.8-31.3,116.8
		c-3.9,14.6-7.8,29.1-11.7,43.7c-0.1,0.3-0.2,0.6-0.2,0.9c0.7,0.5,1.4,0.3,2.1,0.3c55,0,110.1,0,165.1,0c4.8,0,9.6-0.8,14.1-2.5
		c9-3.4,14.6-10,17.8-18.9c2-5.6,3.3-11.3,4.8-17c8.9-33.1,17.7-66.1,26.6-99.2c1.1-4.2,1.9-8.4,1.3-12.8c-0.7-5-3.3-8.6-7.8-10.8
		c-3.1-1.5-6.5-2.2-9.9-2.4c-2.1-0.1-4.3,0-6.6,0c0.1-2.3,0.8-4.1,1.3-5.9c5.7-21.3,11.4-42.5,17.1-63.8c0.6-2.1,0.6-2.1,2.7-2.1
		c13.2,0.1,26,1.8,38,7.6c21.5,10.4,34.5,27.3,38.6,50.9c1.9,10.7,1,21.4-1.3,31.9c-2.7,12-6.2,23.8-9.3,35.7
		c-7.4,27.8-15,55.6-22.4,83.5c-6.9,26-21,47.4-41.4,64.8c-13.8,11.7-29,20.9-46.2,26.6c-12.1,4.1-24.6,6.2-37.4,6.2
		c-92.1,0-184.2,0-276.2,0c-0.8,0-1.6,0-2.3,0c-0.4-0.8-0.1-1.3,0.1-1.9c6-22.5,12-45,18-67.5c0.6-2.2,0.6-2.2,2.8-2.2
		c12.2-0.1,24.5-0.1,36.7-0.2c2.1,0,2.1,0,2.6-1.9c9.8-36.5,19.5-72.9,29.3-109.4c4.6-17,9.1-34.1,13.7-51.1
		c0.1-0.2,0.1-0.5,0.2-0.9c-2.3-0.4-4.6-0.1-6.9-0.2c-2.3,0-4.6,0-7,0c-2.3,0-4.6,0-7,0c-2.2,0-4.5,0-6.7,0c-2.3,0-4.6-0.1-7-0.1
		C-1174.6,367.3-1176.9,367.3-1179.6,367.3z"/>
</g>
<g>
	<path class="st4" d="M-1104.8,703.2c-4.9,0-9.8-0.1-14.6,0c-3.2,0.1-5.9-2.2-5.4-6c0.7-5,1.4-9.9,2.1-14.9c1-7.1,2.1-14.3,3.1-21.4
		c0.8-5.3,1.6-10.7,2.4-16c0.4-2.8,2.8-5.8,6.4-6c0.6,0,1.1,0,1.7,0c8.9,0,17.8,0,26.6,0c0.6,0,1.1,0,1.7,0c3.6,0.2,5.1,2.9,4.9,5.3
		c-0.3,2.6-0.6,5.2-1,7.8c-1.1,7.6-2.2,15.2-3.3,22.9c-1.1,7.5-2.1,14.9-3.2,22.4c-0.6,3.8-3.2,5.9-6.9,5.9
		C-1095.2,703.2-1100,703.2-1104.8,703.2z"/>
	<path class="st4" d="M-1040.5,678.2c0.8,2.3,1.5,4.7,2.3,7.1c1.3,4,2.7,8,4.1,12c0.5,1.5,0.7,3.1,0.7,4.7c0,0.8-0.2,1.2-1.1,1.2
		c-4.6,0-9.3,0-13.9,0c-0.7,0-1.2-0.3-1-0.9c1-3.3-0.7-6.2-1.5-9.2c-1.2-4.2-2.5-8.4-3.8-12.6c-0.7-2.1-0.7-2.1-2.8-2.1
		c-1,0-1.3,0.4-1.5,1.4c-0.4,3.2-0.9,6.4-1.3,9.7c-0.4,3.1-0.9,6.3-1.4,9.4c-0.2,1.1,0.3,2,0.3,3.1c0,0.9-0.3,1.3-1.2,1.3
		c-4.6,0-9.3,0-13.8,0c-0.1-0.3-0.3-0.4-0.2-0.6c1.5-3.7,1.7-7.7,2.3-11.7c1.5-10.1,2.9-20.3,4.3-30.4c0.8-5.7,1.6-11.5,2.4-17.2
		c0.1-0.9,0.1-1.8,0-2.6c-0.2-1.8-0.2-1.8,1.6-1.8c10.2,0,20.5,0,30.7,0c4.3,0,6.2,2.4,5.5,6.7c-0.9,6.4-1.7,12.7-2.6,19.1
		c-0.3,2.2-0.6,4.4-0.9,6.6c-0.5,3.7-2.2,5.5-5.8,6.4C-1039.7,677.8-1040.1,677.7-1040.5,678.2z"/>
	<path class="st4" d="M-1196.9,680.7c-0.8,2.3-1.6,4.4-1.8,6.5c-0.2,1.7,0.1,2.1,1.7,2.1c2.3,0.1,4.6,0,7,0c2,0,2.5-0.4,2.8-2.5
		c0.4-2.8,0.9-5.6,1.3-8.7c-2.5-0.7-5.1-1.4-7.7-2c-3.7-1-7.4-1.9-11.1-2.9c-3.2-0.9-4.9-3.7-4.4-7c1.1-7,2.2-14,3.3-20.9
		c0.6-3.6,3.3-6.3,7-6.3c8.6-0.1,17.3-0.1,25.9,0c3.3,0,5.3,2.3,5,5.6c-0.1,1.4-0.3,2.8-0.6,4.2c-0.6,3.1-1.1,6.3-0.9,9.5
		c0.1,0.9-0.1,1.5-1.3,1.5c-4.6-0.1-9.3,0-13.9,0c0-1.2,0.5-2.1,0.8-3.1c0.2-0.8,0.4-1.5,0.6-2.3c0.2-1-0.3-1.5-1.3-1.5
		c-2.3,0-4.6,0-7,0c-1.2,0-1.7,0.7-1.8,1.8c-0.3,2-0.5,3.9-0.9,5.9c-0.2,1.1,0.4,1.2,1.1,1.4c2.7,0.7,5.4,1.4,8.1,2.1
		c3,0.8,6,1.5,9,2.3c3.6,0.9,5.2,3.1,4.9,6.8c-0.3,2.7-0.7,5.3-1.1,8c-0.8,5-1.6,10-2.3,15.1c-0.3,2.5-1.4,4.5-3.5,6
		c-1.1,0.7-2.3,1-3.6,1c-9,0-17.9,0-26.9,0c-3.8,0-5.8-2.1-5.3-5.9c0.4-3.5,1-7.1,1.6-10.6c0.3-1.6,0.2-3.2,0.2-4.8
		c0-0.9,0.2-1.3,1.2-1.3C-1206.4,680.7-1201.8,680.7-1196.9,680.7z"/>
	<path class="st4" d="M-969.2,680.7c-0.5,2.3-1.4,4.1-1.5,6.1c-0.1,2.2,0,2.4,2,2.5c2.2,0,4.5,0,6.7,0c2,0,2.4-0.5,2.7-2.6
		c0.3-2.2,0.6-4.4,0.9-6.6c0.3-2,0.2-2.1-1.7-2.6c-5.5-1.4-10.9-2.9-16.4-4.2c-3.5-0.8-5.7-3.5-5.1-7.6c0.9-6.8,1.8-13.7,2.7-20.5
		c0.5-3.7,3.2-6.2,6.9-6.3c8.5-0.1,17,0,25.4,0c3.5,0,5.9,2.9,5.4,6.5c-0.6,4.3-1.7,8.6-1.2,13c0.1,0.6,0.2,1.3-0.9,1.3
		c-4.8,0-9.5,0-14.4,0c0.1-1.3,0.6-2.3,0.9-3.4c0.2-0.6,0.4-1.2,0.4-1.9c0.1-1.1-0.2-1.7-1.4-1.7c-2.1,0-4.2,0-6.2,0
		c-1.8,0-2.2,0.4-2.4,2.2c-0.3,2.1-0.6,4.2-0.9,6.5c4.4,1.1,8.8,2.3,13.1,3.4c1.9,0.5,3.9,0.9,5.8,1.5c3,0.9,4.5,2.8,4.5,6
		c0,3.7-0.8,7.3-1.2,10.9c-0.4,4.4-1.3,8.8-1.7,13.2c-0.4,4.5-4.1,6.8-7.5,6.7c-8.7-0.2-17.4,0-26.2-0.1c-4.2,0-6.1-2.4-5.5-6.7
		c0.6-3.8,1.1-7.7,1.5-11.6c0.1-1,0-2.1-0.3-3.1c-0.2-0.7,0.1-1.2,1-1.2C-978.8,680.7-974.1,680.7-969.2,680.7z"/>
	<path class="st4" d="M-1168.9,703.2c2.8-11.8,3.9-23.6,5.8-35.2c1.3-8,2.5-16,3.7-24c0.2-1.3,0.1-2.7,0.1-4.1c0-0.7,0.2-1,1-1
		c0.5,0,1,0,1.4,0c9.3,0,18.5,0,27.8,0c0.5,0,1,0,1.4,0c3.2,0.3,5.3,2.7,4.8,5.9c-1.4,9.4-2.8,18.8-4.2,28.2c-0.5,3.4-3.3,5.6-7,5.7
		c-4.8,0-9.6,0-14.4,0c-2.4,0-2.4,0-2.7,2.5c-0.8,5.8-1.7,11.6-2.6,17.4c-0.2,1,0,1.9,0.2,2.8c0.2,1.5,0,1.7-1.4,1.8
		C-1159.7,703.2-1164.2,703.2-1168.9,703.2z"/>
	<path class="st4" d="M-1011.5,651.1c-4.6,0-8.9,0-13.4,0c0.3-2.2,0.6-4.1,0.9-6.1c0.2-1.6,0.3-3.2,0-4.8c-0.1-0.9,0.1-1.4,1.1-1.3
		c0.2,0,0.3,0,0.5,0c13.3,0,26.5,0,39.8,0c0.3,0,0.6,0.1,1,0.1c0,1.8-1.1,3.2-1.2,4.9c-0.1,2-0.5,3.9-0.8,5.9
		c-0.1,1-0.6,1.3-1.5,1.3c-3.6,0-7.2,0-10.8,0c-1.2,0-1.6,0.4-1.8,1.6c-1.4,11.1-2.9,22.2-4.3,33.3c-0.5,4-1.2,8-1.7,12
		c-0.2,1.6,0,3.3,0,5.1c-5,0-10,0-15,0c0-0.2-0.2-0.5-0.1-0.6c2-5.7,2.1-11.7,3-17.6c1.4-8.9,2.5-17.9,3.6-26.9
		C-1011.9,655.8-1011.3,653.6-1011.5,651.1z"/>
	<path d="M-1103.1,689.3c-1.7,0-3.4,0-5,0c-1,0-1.5-0.5-1.4-1.5c0.2-1.7,0.4-3.5,0.6-5.2c1.3-8.9,2.6-17.7,3.8-26.6
		c0.1-0.5,0.2-1.1,0.3-1.6c0.1-1.1,0.7-1.5,1.8-1.6c3.5,0,7,0,10.5,0c1.3,0,1.4,0.8,1.3,1.8c-0.4,2.8-0.8,5.7-1.2,8.5
		c-1.1,7.4-2.1,14.7-3.2,22.1c-0.1,0.6-0.2,1.3-0.3,1.9c-0.4,2-0.7,2.2-2.7,2.2C-1100.1,689.3-1101.6,689.3-1103.1,689.3
		C-1103.1,689.3-1103.1,689.3-1103.1,689.3z"/>
	<path class="st14" d="M-1052.5,665.8c-1.1,0-2.2,0-3.4,0c-1.2,0.1-1.3-0.6-1.2-1.5c0.5-3.2,0.9-6.4,1.4-9.6
		c0.3-1.8,0.3-1.8,2.1-1.8c2.3,0,4.6,0,7,0c1.1,0,1.6,0.5,1.5,1.6c-0.5,3.2-1,6.4-1.4,9.7c-0.2,1.2-0.9,1.6-1.9,1.7
		C-1049.7,665.9-1051.1,665.8-1052.5,665.8C-1052.5,665.8-1052.5,665.8-1052.5,665.8z"/>
	<path class="st14" d="M-1144.7,664.9c-0.9,0-1.8,0-2.6,0c-1.4-0.1-1.6-0.2-1.4-1.5c0.5-3,1-5.9,1.3-8.9c0.2-1.2,0.6-1.7,1.8-1.6
		c2,0.1,4,0,6,0c1,0,1.4,0.4,1.2,1.5c-0.5,3-0.9,6.1-1.4,9.1c-0.1,1-0.8,1.3-1.7,1.4C-1142.4,664.9-1143.5,664.8-1144.7,664.9
		C-1144.7,664.8-1144.7,664.9-1144.7,664.9z"/>
</g>
</svg>
